<svg id="Capa_1" enable-background="new 0 0 512 512" height="512" viewBox="0 0 512 512" width="512" xmlns="http://www.w3.org/2000/svg"><g><g><g><g><g><g><g><g><circle cx="256" cy="256" fill="#00ddc1" r="256"/></g></g></g></g></g></g></g><path d="m256 512c141.385 0 256-114.615 256-256 0-4.636-.13-9.241-.374-13.816l-136.18-136.18-296.654 308.188 77.78 77.78c30.569 12.896 64.165 20.028 99.428 20.028z" fill="#00baa0"/><g><g><g><g><path d="m256.002 57.423-177.21 136.391 177.21 10.324 70.484-80.117z" fill="#f5f2f1"/></g></g><g><path d="m256.002 57.423v146.715l177.209-10.324z" fill="#dbd1cc"/></g></g><g><g><path d="m256.001 193.814h-177.209v220.378h177.209l70.485-112.77z" fill="#fff"/></g><g><path d="m256.001 193.814h177.209v220.377h-177.209z" fill="#f5f2f1"/></g></g><g><g><path d="m256.002 193.814h177.209l-57.765 107.127-119.444-10.324-70.485-44.494z" fill="#989eec"/></g><g><path d="m78.792 193.814h177.21v96.803l-119.446 10.324z" fill="#b5b9f1"/></g></g><g><g><g><g><g><path d="m256.001 106.005h-119.445v194.936h119.445l47.509-99.751z" fill="#7a3eb4"/></g></g></g><g><g><path d="m256.001 106.005h119.445v194.936h-119.445z" fill="#613393"/></g></g></g><g><path d="m256.001 128.528 24.182 76.127-24.182 28.594-41.035 21.573 7.837-45.693-33.198-32.361 45.879-6.666z" fill="#ffea98"/><path d="m256.001 128.528 20.518 41.574 45.879 6.666-33.198 32.361 7.837 45.693-41.036-21.573z" fill="#fd5"/></g></g><path d="m336.443 148.049-9.925 4.121-4.12 9.925-4.12-9.925-9.925-4.121 9.925-4.12 4.12-9.925 4.12 9.925z" fill="#fc0"/><path d="m360.576 200.668-13.132 5.451-5.451 13.132-5.452-13.132-13.132-5.451 13.132-5.452 5.452-13.132 5.451 13.132z" fill="#fc0"/><g fill="#fd5"><path d="m185.517 233.784-9.925 4.12-4.12 9.925-4.12-9.925-9.925-4.12 9.925-4.121 4.12-9.925 4.12 9.925z"/><path d="m214.584 273.127-12.935 5.37-5.37 12.935-5.37-12.935-12.935-5.37 12.935-5.37 5.37-12.935 5.37 12.935z"/></g></g></g></svg>